<?xml version="1.0" encoding="iso-8859-1"?>
<!-- Generator: Adobe Illustrator 19.0.0, SVG Export Plug-In . SVG Version: 6.00 Build 0)  -->
<svg version="1.1" id="Capa_1" xmlns="http://www.w3.org/2000/svg" xmlns:xlink="http://www.w3.org/1999/xlink" x="0px" y="0px"
	 viewBox="0 0 384.97 384.97" style="enable-background:new 0 0 384.97 384.97;" xml:space="preserve">
<g>
	<path id="&#x421;rossed_Vintage_Arrows" d="M372.939,108.273c6.617,0,12.03-5.414,12.03-12.03V12.03c0,0,0,0,0-0.012
		c0-1.588-0.325-3.164-0.938-4.644c-0.12-0.289-0.373-0.493-0.517-0.782c-0.553-1.095-1.143-2.19-2.045-3.092
		s-1.985-1.48-3.068-2.033c-0.289-0.156-0.505-0.409-0.806-0.529C376.103,0.325,374.527,0,372.951,0l0,0h-84.212
		c-6.617,0-12.03,5.414-12.03,12.03s5.414,12.03,12.03,12.03h55.171L192.485,175.474L41.071,24.061h55.171
		c6.617,0,12.03-5.414,12.03-12.03S102.859,0,96.242,0H12.03c0,0,0,0-0.012,0c-1.576,0-3.152,0.325-4.632,0.95
		c-0.289,0.12-0.505,0.373-0.782,0.517C5.51,2.021,4.427,2.611,3.513,3.513C2.611,4.415,2.033,5.498,1.48,6.581
		C1.323,6.869,1.071,7.086,0.95,7.387C0.325,8.866,0,10.442,0,12.018l0,0V96.23c0,6.617,5.414,12.03,12.03,12.03
		s12.03-5.414,12.03-12.03V41.071l151.413,151.413l-48.121,48.121H60.152c-6.617,0-12.03,5.414-12.03,12.03
		c0,6.617,5.414,12.03,12.03,12.03h43.141l-24.061,24.061H12.03c-6.617,0-12.03,5.414-12.03,12.03c0,6.617,5.414,12.03,12.03,12.03
		h60.152v60.152c0,6.617,5.414,12.03,12.03,12.03s12.03-5.414,12.03-12.03v-67.201l24.061-24.061v43.141
		c0,6.617,5.414,12.03,12.03,12.03c6.617,0,12.03-5.414,12.03-12.03v-67.201l48.121-48.121l48.121,48.121v67.201
		c0,6.617,5.414,12.03,12.03,12.03c6.617,0,12.03-5.414,12.03-12.03v-43.141l24.061,24.061v67.201c0,6.617,5.414,12.03,12.03,12.03
		c6.617,0,12.03-5.414,12.03-12.03v-60.152h60.152c6.617,0,12.03-5.414,12.03-12.03c0-6.617-5.414-12.03-12.03-12.03h-67.201
		l-24.061-24.061h43.141c6.617,0,12.03-5.414,12.03-12.03c0-6.617-5.414-12.03-12.03-12.03h-67.201l-48.121-48.121L360.909,41.071
		v55.171C360.909,102.859,366.323,108.273,372.939,108.273z"/>
	<g>
	</g>
	<g>
	</g>
	<g>
	</g>
	<g>
	</g>
	<g>
	</g>
	<g>
	</g>
</g>
<g>
</g>
<g>
</g>
<g>
</g>
<g>
</g>
<g>
</g>
<g>
</g>
<g>
</g>
<g>
</g>
<g>
</g>
<g>
</g>
<g>
</g>
<g>
</g>
<g>
</g>
<g>
</g>
<g>
</g>
</svg>
