<?xml version="1.0" encoding="iso-8859-1"?>
<!-- Generator: Adobe Illustrator 19.0.0, SVG Export Plug-In . SVG Version: 6.00 Build 0)  -->
<svg version="1.1" id="Capa_1" xmlns="http://www.w3.org/2000/svg" xmlns:xlink="http://www.w3.org/1999/xlink" x="0px" y="0px"
	 viewBox="0 0 384.885 384.885" style="enable-background:new 0 0 384.885 384.885;" xml:space="preserve">
<g>
	<path id="Vintage_Arrow_Right_2_" d="M381.432,183.958l-82.997-84.2c-4.704-4.74-12.319-4.74-17.011,0
		c-4.704,4.752-4.704,12.439,0,17.191l62.57,63.472H208.436l-79.701-80.856c-2.045-2.057-5.546-3.585-8.529-3.585H11.934
		c-10.502,0-15.916,13.257-8.505,20.74l74.54,75.61l-74.54,75.61c-7.23,7.302-2.298,20.524,9.612,20.524h106.059
		c3.513,0,6.978-0.674,9.624-3.344l79.508-80.651H344.21l-62.786,63.688c-4.704,4.74-4.704,12.439,0,17.191
		c4.704,4.74,12.319,4.74,17.011,0l83.009-84.2c2.274-2.31,3.441-5.486,3.441-8.698
		C384.873,189.612,383.465,186.003,381.432,183.958z M115.19,264.405H40.866l59.081-59.935h74.311L115.19,264.405z M100.164,180.409
		L40.65,120.041h74.323l59.514,60.368H100.164z"/>
	<g>
	</g>
	<g>
	</g>
	<g>
	</g>
	<g>
	</g>
	<g>
	</g>
	<g>
	</g>
</g>
<g>
</g>
<g>
</g>
<g>
</g>
<g>
</g>
<g>
</g>
<g>
</g>
<g>
</g>
<g>
</g>
<g>
</g>
<g>
</g>
<g>
</g>
<g>
</g>
<g>
</g>
<g>
</g>
<g>
</g>
</svg>
