<?xml version="1.0" encoding="iso-8859-1"?>
<!-- Generator: Adobe Illustrator 19.0.0, SVG Export Plug-In . SVG Version: 6.00 Build 0)  -->
<svg version="1.1" id="Capa_1" xmlns="http://www.w3.org/2000/svg" xmlns:xlink="http://www.w3.org/1999/xlink" x="0px" y="0px"
	 viewBox="0 0 384.973 384.973" style="enable-background:new 0 0 384.973 384.973;" xml:space="preserve">
<g>
	<path id="Vintage_Arrow_Down" d="M192.504,384.973c2.827,0,6.436-1.408,8.481-3.441l84.2-82.997c4.74-4.704,4.74-12.319,0-17.011
		c-4.752-4.704-12.439-4.704-17.191,0l-63.472,62.57V172.445l80.868-79.725c4.74-4.704,4.74-12.319,0-17.011
		c-4.752-4.704-12.439-4.704-17.191,0l-63.688,62.786v-38.232l80.868-79.725c4.74-4.704,4.74-12.319,0-17.011
		c-4.752-4.704-12.439-4.704-17.191,0l-75.61,74.528L117.002,3.528c-4.74-4.704-12.439-4.704-17.191,0
		c-4.74,4.704-4.74,12.319,0,17.011l80.651,79.508v38.22l-63.46-62.558c-4.74-4.704-12.439-4.704-17.191,0
		c-4.74,4.704-4.752,12.319,0,17.011l80.651,79.508v172.069l-63.688-62.786c-4.74-4.704-12.439-4.704-17.191,0
		c-4.74,4.704-4.74,12.319,0,17.011l84.2,83.009C186.104,383.818,189.292,384.973,192.504,384.973z"/>
	<g>
	</g>
	<g>
	</g>
	<g>
	</g>
	<g>
	</g>
	<g>
	</g>
	<g>
	</g>
</g>
<g>
</g>
<g>
</g>
<g>
</g>
<g>
</g>
<g>
</g>
<g>
</g>
<g>
</g>
<g>
</g>
<g>
</g>
<g>
</g>
<g>
</g>
<g>
</g>
<g>
</g>
<g>
</g>
<g>
</g>
</svg>
