<?xml version="1.0" encoding="iso-8859-1"?>
<!-- Generator: Adobe Illustrator 19.0.0, SVG Export Plug-In . SVG Version: 6.00 Build 0)  -->
<svg version="1.1" id="Capa_1" xmlns="http://www.w3.org/2000/svg" xmlns:xlink="http://www.w3.org/1999/xlink" x="0px" y="0px"
	 viewBox="0 0 384.867 384.867" style="enable-background:new 0 0 384.867 384.867;" xml:space="preserve">
<g>
	<path id="Vintage_Luxury_Arrow_Down" d="M201.001,381.33c0.132-0.132,84.128-83.575,84.128-83.575
		c2.442-2.442,3.585-5.654,3.501-8.842c0-0.096,0.06-0.18,0.06-0.277V11.928c0-10.587-13.342-15.88-20.776-8.481l-75.731,75.093
		L117.342,4.312c-7.435-7.988-21.161-4.415-21.137,10.166v274.05c-0.217,3.344,0.842,6.749,3.417,9.311l84.2,83.49
		C188.561,386.046,196.261,386.046,201.001,381.33z M120.35,284.234l-0.072-242.856l63.207,62.678
		c2.406,2.394,5.558,3.549,8.71,3.525c3.152,0.036,6.304-1.131,8.71-3.525l63.725-63.195v243.06l-72.302,71.689L120.35,284.234z"/>
	<g>
	</g>
	<g>
	</g>
	<g>
	</g>
	<g>
	</g>
	<g>
	</g>
	<g>
	</g>
</g>
<g>
</g>
<g>
</g>
<g>
</g>
<g>
</g>
<g>
</g>
<g>
</g>
<g>
</g>
<g>
</g>
<g>
</g>
<g>
</g>
<g>
</g>
<g>
</g>
<g>
</g>
<g>
</g>
<g>
</g>
</svg>
