<?xml version="1.0" encoding="iso-8859-1"?>
<!-- Generator: Adobe Illustrator 19.0.0, SVG Export Plug-In . SVG Version: 6.00 Build 0)  -->
<svg version="1.1" id="Capa_1" xmlns="http://www.w3.org/2000/svg" xmlns:xlink="http://www.w3.org/1999/xlink" x="0px" y="0px"
	 viewBox="0 0 384.985 384.985" style="enable-background:new 0 0 384.985 384.985;" xml:space="preserve">
<g>
	<path id="Vintage_Arrow_Right" d="M384.985,192.486c0-2.827-1.408-6.436-3.441-8.481l-82.997-84.2
		c-4.704-4.74-12.319-4.74-17.011,0c-4.704,4.752-4.704,12.439,0,17.191l62.57,63.46H172.457L92.733,99.588
		c-4.704-4.74-12.319-4.74-17.011,0c-4.704,4.752-4.704,12.439,0,17.191l62.786,63.676h-38.232L20.551,99.588
		c-4.704-4.74-12.319-4.74-17.011,0c-4.704,4.752-4.704,12.439,0,17.191l74.528,75.61l-74.54,75.61
		c-4.704,4.74-4.704,12.439,0,17.191c4.704,4.74,12.319,4.74,17.011,0l79.52-80.675h38.22l-62.57,63.472
		c-4.704,4.74-4.704,12.439,0,17.191c4.704,4.74,12.319,4.752,17.011,0l79.52-80.663H344.31l-62.786,63.688
		c-4.704,4.74-4.704,12.439,0,17.191c4.704,4.74,12.319,4.74,17.011,0l83.009-84.2C383.83,198.886,384.985,195.698,384.985,192.486z
		"/>
	<g>
	</g>
	<g>
	</g>
	<g>
	</g>
	<g>
	</g>
	<g>
	</g>
	<g>
	</g>
</g>
<g>
</g>
<g>
</g>
<g>
</g>
<g>
</g>
<g>
</g>
<g>
</g>
<g>
</g>
<g>
</g>
<g>
</g>
<g>
</g>
<g>
</g>
<g>
</g>
<g>
</g>
<g>
</g>
<g>
</g>
</svg>
