<?xml version="1.0" encoding="iso-8859-1"?>
<!-- Generator: Adobe Illustrator 19.0.0, SVG Export Plug-In . SVG Version: 6.00 Build 0)  -->
<svg version="1.1" id="Capa_1" xmlns="http://www.w3.org/2000/svg" xmlns:xlink="http://www.w3.org/1999/xlink" x="0px" y="0px"
	 viewBox="0 0 384.965 384.965" style="enable-background:new 0 0 384.965 384.965;" xml:space="preserve">
<g>
	<path id="Arrow_Right" d="M381.421,183.925L381.421,183.925L381.421,183.925L261.479,63.73c-7.627-7.94-21.029-1.949-20.728,8.83
		v59.863c-0.048-0.012-0.096-0.036-0.144-0.036H12.03C5.414,132.387,0,137.8,0,144.417v96.242c0,6.617,5.414,12.03,12.03,12.03
		h228.576c0.048,0,0.096-0.024,0.144-0.024v59.815c-0.289,10.731,13.017,16.554,20.632,8.926l120.026-120.291
		C386.149,196.364,386.149,188.665,381.421,183.925z M264.871,283.535v-54.906h-0.205h-12.03H240.75v0.024
		c-0.048,0-0.096-0.024-0.144-0.024h-12.03H24.061v-72.182h204.515h12.03c0.048,0,0.096-0.024,0.144-0.024v0.024h11.886h12.03h0.205
		v-54.954l90.829,91.021L264.871,283.535z"/>
	<g>
	</g>
	<g>
	</g>
	<g>
	</g>
	<g>
	</g>
	<g>
	</g>
	<g>
	</g>
</g>
<g>
</g>
<g>
</g>
<g>
</g>
<g>
</g>
<g>
</g>
<g>
</g>
<g>
</g>
<g>
</g>
<g>
</g>
<g>
</g>
<g>
</g>
<g>
</g>
<g>
</g>
<g>
</g>
<g>
</g>
</svg>
