<?xml version="1.0" encoding="iso-8859-1"?>
<!-- Generator: Adobe Illustrator 19.0.0, SVG Export Plug-In . SVG Version: 6.00 Build 0)  -->
<svg version="1.1" id="Capa_1" xmlns="http://www.w3.org/2000/svg" xmlns:xlink="http://www.w3.org/1999/xlink" x="0px" y="0px"
	 viewBox="0 0 384.965 384.965" style="enable-background:new 0 0 384.965 384.965;" xml:space="preserve">
<g>
	<path id="Arrow_Up" d="M183.919,3.544L183.919,3.544L183.919,3.544L63.724,123.487c-7.94,7.627-1.949,21.029,8.83,20.728h59.863
		c0,0.048-0.024,0.096-0.024,0.144v228.576c0,6.617,5.414,12.03,12.03,12.03h96.242c6.617,0,12.03-5.414,12.03-12.03V144.359
		c0-0.048-0.024-0.096-0.024-0.144h59.815c10.731,0.289,16.554-13.017,8.926-20.632L201.122,3.556
		C196.358-1.183,188.658-1.183,183.919,3.544z M283.529,120.094h-54.906v0.205v12.03v11.886h0.024c0,0.048-0.024,0.096-0.024,0.144
		v12.03v204.515h-72.182V156.389v-12.03c0-0.048-0.024-0.096-0.024-0.144h0.024v-11.886v-12.03v-0.205h-54.954l91.021-90.829
		L283.529,120.094z"/>
	<g>
	</g>
	<g>
	</g>
	<g>
	</g>
	<g>
	</g>
	<g>
	</g>
	<g>
	</g>
</g>
<g>
</g>
<g>
</g>
<g>
</g>
<g>
</g>
<g>
</g>
<g>
</g>
<g>
</g>
<g>
</g>
<g>
</g>
<g>
</g>
<g>
</g>
<g>
</g>
<g>
</g>
<g>
</g>
<g>
</g>
</svg>
