<?xml version="1.0" encoding="iso-8859-1"?>
<!-- Generator: Adobe Illustrator 19.0.0, SVG Export Plug-In . SVG Version: 6.00 Build 0)  -->
<svg version="1.1" id="Capa_1" xmlns="http://www.w3.org/2000/svg" xmlns:xlink="http://www.w3.org/1999/xlink" x="0px" y="0px"
	 viewBox="0 0 384.965 384.965" style="enable-background:new 0 0 384.965 384.965;" xml:space="preserve">
<g>
	<path id="Arrow_Down" d="M201.035,381.421L201.035,381.421L201.035,381.421l120.195-119.942c7.94-7.627,1.949-21.029-8.83-20.728
		h-59.863c0.012-0.048,0.036-0.096,0.036-0.144V12.03c0-6.617-5.414-12.03-12.03-12.03H144.3c-6.617,0-12.03,5.414-12.03,12.03
		v228.576c0,0.048,0.024,0.096,0.024,0.144H72.491c-10.731-0.289-16.554,13.017-8.926,20.632l120.291,120.026
		C188.595,386.149,196.295,386.149,201.035,381.421z M101.424,264.871h54.906v-0.205v-12.03V240.75h-0.024
		c0-0.048,0.024-0.096,0.024-0.144v-12.03V24.061h72.182v204.515v12.03c0,0.048,0.024,0.096,0.024,0.144h-0.024v11.886v12.03v0.205
		h54.954L192.445,355.7L101.424,264.871z"/>
	<g>
	</g>
	<g>
	</g>
	<g>
	</g>
	<g>
	</g>
	<g>
	</g>
	<g>
	</g>
</g>
<g>
</g>
<g>
</g>
<g>
</g>
<g>
</g>
<g>
</g>
<g>
</g>
<g>
</g>
<g>
</g>
<g>
</g>
<g>
</g>
<g>
</g>
<g>
</g>
<g>
</g>
<g>
</g>
<g>
</g>
</svg>
