<?xml version="1.0" encoding="iso-8859-1"?>
<!-- Generator: Adobe Illustrator 19.0.0, SVG Export Plug-In . SVG Version: 6.00 Build 0)  -->
<svg version="1.1" id="Capa_1" xmlns="http://www.w3.org/2000/svg" xmlns:xlink="http://www.w3.org/1999/xlink" x="0px" y="0px"
	 viewBox="0 0 384.985 384.985" style="enable-background:new 0 0 384.985 384.985;" xml:space="preserve">
<g>
	<path id="Vintage_Arrow_Left" d="M0,192.498c0,2.827,1.408,6.436,3.441,8.481l82.997,84.2c4.704,4.74,12.319,4.74,17.011,0
		c4.704-4.752,4.704-12.439,0-17.191l-62.57-63.46h171.648l79.725,80.868c4.704,4.74,12.319,4.74,17.011,0
		c4.704-4.752,4.704-12.439,0-17.191l-62.786-63.676h38.232l79.725,80.868c4.704,4.74,12.319,4.74,17.011,0
		c4.704-4.752,4.704-12.439,0-17.191l-74.528-75.61l74.54-75.61c4.704-4.74,4.704-12.439,0-17.191c-4.704-4.74-12.319-4.74-17.011,0
		l-79.52,80.675h-38.22l62.57-63.472c4.704-4.74,4.704-12.439,0-17.191c-4.704-4.74-12.319-4.752-17.011,0l-79.52,80.663H40.674
		l62.786-63.688c4.704-4.74,4.704-12.439,0-17.191c-4.704-4.74-12.319-4.74-17.011,0l-83.009,84.2
		C1.155,186.098,0,189.286,0,192.498z"/>
	<g>
	</g>
	<g>
	</g>
	<g>
	</g>
	<g>
	</g>
	<g>
	</g>
	<g>
	</g>
</g>
<g>
</g>
<g>
</g>
<g>
</g>
<g>
</g>
<g>
</g>
<g>
</g>
<g>
</g>
<g>
</g>
<g>
</g>
<g>
</g>
<g>
</g>
<g>
</g>
<g>
</g>
<g>
</g>
<g>
</g>
</svg>
