<?xml version="1.0" encoding="iso-8859-1"?>
<!-- Generator: Adobe Illustrator 19.0.0, SVG Export Plug-In . SVG Version: 6.00 Build 0)  -->
<svg version="1.1" id="Capa_1" xmlns="http://www.w3.org/2000/svg" xmlns:xlink="http://www.w3.org/1999/xlink" x="0px" y="0px"
	 viewBox="0 0 384.97 384.97" style="enable-background:new 0 0 384.97 384.97;" xml:space="preserve">
<g>
	<g id="Arrow_Drop_Right_Square">
		<path d="M360.909,0H24.061C10.767,0,0,10.767,0,24.061v336.848c0,13.293,10.767,24.061,24.061,24.061h336.848
			c13.281,0,24.061-10.767,24.061-24.061V24.061C384.97,10.767,374.191,0,360.909,0z M360.909,360.909H24.061V24.061h336.848
			V360.909z"/>
		<path id="Arrow_Drop_Down_2_" d="M132.273,60.152c-6.785,0-12.151,5.883-11.97,12.56v239.92
			c-0.289,10.671,12.872,16.602,20.476,8.926l119.1-120.291c4.692-4.74,4.523-12.403,0-17.191L140.875,63.881
			C138.697,61.607,135.666,60.152,132.273,60.152z M234.35,192.677l-90.119,91.021V101.656L234.35,192.677z"/>
	</g>
	<g>
	</g>
	<g>
	</g>
	<g>
	</g>
	<g>
	</g>
	<g>
	</g>
	<g>
	</g>
</g>
<g>
</g>
<g>
</g>
<g>
</g>
<g>
</g>
<g>
</g>
<g>
</g>
<g>
</g>
<g>
</g>
<g>
</g>
<g>
</g>
<g>
</g>
<g>
</g>
<g>
</g>
<g>
</g>
<g>
</g>
</svg>
